REM DIRINDEX 1\2,1\4,1\5,1\6,1\7,1\3\8,1\3\9,1\3\10
REM DIRNAME folder01,folder02,folder03,folder04,folder05,folder06,folder07,folder08,folder09,folder10
TITLE ""
FILE "DB4500_5th_6C_33.mp3" MP3
  TRACK 01 AUDIO
    TITLE "0:"
    INDEX 01 00:00:00
  TRACK 02 AUDIO
    TITLE "8:cjc113_4598"
    INDEX 01 00:00:05
  TRACK 03 AUDIO
    TITLE "0:"
    INDEX 01 00:01:30
  TRACK 04 AUDIO
    TITLE "9:cjc113_4599"
    INDEX 01 00:01:40
  TRACK 05 AUDIO
    TITLE "0:"
    INDEX 01 00:02:63
  TRACK 06 AUDIO
    TITLE "10:cjc113_4600"
    INDEX 01 00:02:65
  TRACK 07 AUDIO
    TITLE "0:"
    INDEX 01 00:05:20
  TRACK 08 AUDIO
    TITLE "8:cjc113_4601"
    INDEX 01 00:05:54
  TRACK 09 AUDIO
    TITLE "0:"
    INDEX 01 00:06:57
  TRACK 10 AUDIO
    TITLE "9:cjc113_4602"
    INDEX 01 00:06:65
  TRACK 11 AUDIO
    TITLE "0:"
    INDEX 01 00:08:40
  TRACK 12 AUDIO
    TITLE "10:cjc113_4603"
    INDEX 01 00:08:50
  TRACK 13 AUDIO
    TITLE "0:"
    INDEX 01 00:12:52
  TRACK 14 AUDIO
    TITLE "8:cjc113_4604"
    INDEX 01 00:13:08
  TRACK 15 AUDIO
    TITLE "0:"
    INDEX 01 00:14:19
  TRACK 16 AUDIO
    TITLE "9:cjc113_4605"
    INDEX 01 00:14:29
  TRACK 17 AUDIO
    TITLE "0:"
    INDEX 01 00:15:48
  TRACK 18 AUDIO
    TITLE "10:cjc113_4606"
    INDEX 01 00:15:58
  TRACK 19 AUDIO
    TITLE "0:"
    INDEX 01 00:19:26
  TRACK 20 AUDIO
    TITLE "8:cjc113_4607"
    INDEX 01 00:19:56
  TRACK 21 AUDIO
    TITLE "0:"
    INDEX 01 00:20:69
  TRACK 22 AUDIO
    TITLE "9:cjc113_4608"
    INDEX 01 00:21:06
  TRACK 23 AUDIO
    TITLE "0:"
    INDEX 01 00:22:32
  TRACK 24 AUDIO
    TITLE "10:cjc113_4609"
    INDEX 01 00:22:40
  TRACK 25 AUDIO
    TITLE "0:"
    INDEX 01 00:26:46
  TRACK 26 AUDIO
    TITLE "8:cjc113_4610"
    INDEX 01 00:27:02
  TRACK 27 AUDIO
    TITLE "0:"
    INDEX 01 00:28:15
  TRACK 28 AUDIO
    TITLE "9:cjc113_4611"
    INDEX 01 00:28:25
  TRACK 29 AUDIO
    TITLE "0:"
    INDEX 01 00:29:42
  TRACK 30 AUDIO
    TITLE "10:cjc113_4612"
    INDEX 01 00:29:52
  TRACK 31 AUDIO
    TITLE "0:"
    INDEX 01 00:33:26
  TRACK 32 AUDIO
    TITLE "8:cjc113_4613"
    INDEX 01 00:33:56
  TRACK 33 AUDIO
    TITLE "0:"
    INDEX 01 00:34:67
  TRACK 34 AUDIO
    TITLE "9:cjc113_4614"
    INDEX 01 00:35:02
  TRACK 35 AUDIO
    TITLE "0:"
    INDEX 01 00:36:13
  TRACK 36 AUDIO
    TITLE "10:cjc113_4615"
    INDEX 01 00:36:23
  TRACK 37 AUDIO
    TITLE "0:"
    INDEX 01 00:38:55
  TRACK 38 AUDIO
    TITLE "8:cjc113_4616"
    INDEX 01 00:39:11
  TRACK 39 AUDIO
    TITLE "0:"
    INDEX 01 00:40:28
  TRACK 40 AUDIO
    TITLE "9:cjc113_4617"
    INDEX 01 00:40:36
  TRACK 41 AUDIO
    TITLE "0:"
    INDEX 01 00:41:61
  TRACK 42 AUDIO
    TITLE "10:cjc113_4618"
    INDEX 01 00:41:69
  TRACK 43 AUDIO
    TITLE "0:"
    INDEX 01 00:44:30
  TRACK 44 AUDIO
    TITLE "8:cjc113_4619"
    INDEX 01 00:44:61
  TRACK 45 AUDIO
    TITLE "0:"
    INDEX 01 00:46:25
  TRACK 46 AUDIO
    TITLE "9:cjc113_4620"
    INDEX 01 00:46:35
  TRACK 47 AUDIO
    TITLE "0:"
    INDEX 01 00:47:60
  TRACK 48 AUDIO
    TITLE "10:cjc113_4621"
    INDEX 01 00:47:72
  TRACK 49 AUDIO
    TITLE "0:"
    INDEX 01 00:52:57
  TRACK 50 AUDIO
    TITLE "8:cjc113_4622"
    INDEX 01 00:53:13
  TRACK 51 AUDIO
    TITLE "0:"
    INDEX 01 00:54:58
  TRACK 52 AUDIO
    TITLE "9:cjc113_4623"
    INDEX 01 00:54:66
  TRACK 53 AUDIO
    TITLE "0:"
    INDEX 01 00:56:16
  TRACK 54 AUDIO
    TITLE "10:cjc113_4624"
    INDEX 01 00:56:27
  TRACK 55 AUDIO
    TITLE "0:"
    INDEX 01 01:00:17
  TRACK 56 AUDIO
    TITLE "8:cjc113_4625"
    INDEX 01 01:00:57
  TRACK 57 AUDIO
    TITLE "0:"
    INDEX 01 01:01:66
  TRACK 58 AUDIO
    TITLE "9:cjc113_4626"
    INDEX 01 01:02:01
  TRACK 59 AUDIO
    TITLE "0:"
    INDEX 01 01:03:33
  TRACK 60 AUDIO
    TITLE "10:cjc113_4627"
    INDEX 01 01:03:41
  TRACK 61 AUDIO
    TITLE "0:"
    INDEX 01 01:06:04
  TRACK 62 AUDIO
    TITLE "8:cjc113_4628"
    INDEX 01 01:06:34
  TRACK 63 AUDIO
    TITLE "0:"
    INDEX 01 01:07:39
  TRACK 64 AUDIO
    TITLE "9:cjc113_4629"
    INDEX 01 01:07:47
  TRACK 65 AUDIO
    TITLE "0:"
    INDEX 01 01:08:60
  TRACK 66 AUDIO
    TITLE "10:cjc113_4630"
    INDEX 01 01:08:72
  TRACK 67 AUDIO
    TITLE "0:"
    INDEX 01 01:12:32
  TRACK 68 AUDIO
    TITLE "8:cjc113_4631"
    INDEX 01 01:12:64
  TRACK 69 AUDIO
    TITLE "0:"
    INDEX 01 01:15:58
  TRACK 70 AUDIO
    TITLE "9:cjc113_4632"
    INDEX 01 01:15:70
  TRACK 71 AUDIO
    TITLE "0:"
    INDEX 01 01:17:33
  TRACK 72 AUDIO
    TITLE "10:cjc113_4633"
    INDEX 01 01:17:41
  TRACK 73 AUDIO
    TITLE "0:"
    INDEX 01 01:20:24
  TRACK 74 AUDIO
    TITLE "8:cjc113_4634"
    INDEX 01 01:20:57
  TRACK 75 AUDIO
    TITLE "0:"
    INDEX 01 01:21:69
  TRACK 76 AUDIO
    TITLE "9:cjc113_4635"
    INDEX 01 01:21:74
  TRACK 77 AUDIO
    TITLE "0:"
    INDEX 01 01:23:15
  TRACK 78 AUDIO
    TITLE "10:cjc113_4636"
    INDEX 01 01:23:20
  TRACK 79 AUDIO
    TITLE "0:"
    INDEX 01 01:26:27
  TRACK 80 AUDIO
    TITLE "8:cjc113_4637"
    INDEX 01 01:26:60
  TRACK 81 AUDIO
    TITLE "0:"
    INDEX 01 01:27:67
  TRACK 82 AUDIO
    TITLE "9:cjc113_4638"
    INDEX 01 01:28:00
  TRACK 83 AUDIO
    TITLE "0:"
    INDEX 01 01:29:37
  TRACK 84 AUDIO
    TITLE "10:cjc113_4639"
    INDEX 01 01:29:45
  TRACK 85 AUDIO
    TITLE "0:"
    INDEX 01 01:32:49
  TRACK 86 AUDIO
    TITLE "8:cjc113_4640"
    INDEX 01 01:33:03
  TRACK 87 AUDIO
    TITLE "0:"
    INDEX 01 01:34:24
  TRACK 88 AUDIO
    TITLE "9:cjc113_4641"
    INDEX 01 01:34:34
  TRACK 89 AUDIO
    TITLE "0:"
    INDEX 01 01:36:07
  TRACK 90 AUDIO
    TITLE "10:cjc113_4642"
    INDEX 01 01:36:13
  TRACK 91 AUDIO
    TITLE "0:"
    INDEX 01 01:39:45
